#!OML:ASF E:\acrobat2\Project_11_07_03\Capture day 1\Session 1\Acrobat.ASF
:FULLY-SPECIFIED
:DEGREES
594
root 11.7751 18.1182 10.6745 2.87027 4.80297 1.5709
lowerback -5.04829 -0.91006 -4.50339
upperback 0.850005 -0.868417 -1.54532
thorax 3.75742 -0.51063 0.85716
lowerneck 2.12566 -0.45565 1.0005
upperneck 12.6205 -1.05878 4.22569
head 3.74679 -0.318424 1.19443
rclavicle 9.19379e-015 -1.66979e-014
rhumerus -50.2961 -9.97252 -77.7316
rradius 22.8196
rwrist 8.49267
rhand 3.95552 -47.8938
rfingers 7.12502
rthumb 29.3732 -75.5927
lclavicle 9.19379e-015 -1.66979e-014
lhumerus -14.7995 -28.224 83.6776
lradius 29.1603
lwrist 13.4913
lhand -13.4245 -9.43927
lfingers 7.12502
lthumb 12.684 20.1556
rfemur -20.2541 -0.912806 13.959
rtibia 17.4569
rfoot -20.3921 -17.7866
rtoes 2.18968
lfemur 6.60705 -0.642435 -22.6579
ltibia 6.87382
lfoot -6.95527 -12.1853
ltoes 39.6583
595
root 11.7768 18.0931 10.8358 3.0289 5.00794 1.63102
lowerback -5.20394 -0.959465 -4.5638
upperback 0.785441 -0.925255 -1.48941
thorax 3.78303 -0.540295 0.942187
lowerneck 2.2211 -0.488247 0.943614
upperneck 12.8631 -1.14105 4.52966
head 3.82152 -0.346799 1.30655
rclavicle -6.41081e-015 3.57812e-015
rhumerus -50.5871 -10.0848 -77.7101
rradius 22.6946
rwrist 8.69547
rhand 4.2478 -47.9797
rfingers 7.12502
rthumb 29.6522 -75.6293
lclavicle -6.41081e-015 3.57812e-015
lhumerus -14.5909 -28.2465 83.4714
lradius 30.1188
lwrist 13.8146
lhand -13.6798 -9.59957
lfingers 7.12502
lthumb 12.4378 20.0104
rfemur -20.2031 -0.085987 13.8204
rtibia 15.0376
rfoot -21.4617 -19.0263
rtoes 1.51125
lfemur 6.89235 -0.607453 -22.6255
ltibia 7.06087
lfoot -7.01309 -12.6883
ltoes 39.9365
596
root 11.7794 18.0665 10.9986 3.18441 5.1933 1.73036
lowerback -5.35578 -1.01105 -4.64678
upperback 0.730659 -0.982815 -1.44356
thorax 3.81717 -0.570935 1.02912
lowerneck 2.29474 -0.519172 0.910521
upperneck 13.0767 -1.2162 4.78038
head 3.88969 -0.372646 1.39713
rclavicle -1.88845e-015 2.42517e-014
rhumerus -50.8289 -10.1552 -77.7065
rradius 22.5646
rwrist 8.90883
rhand 4.49089 -48.0149
rfingers 7.12502
rthumb 29.8843 -75.6231
lclavicle -1.88845e-015 2.42517e-014
lhumerus -14.4186 -28.1958 83.2715
lradius 31.1158
lwrist 14.1609
lhand -13.8901 -9.72204
lfingers 7.12502
lthumb 12.2351 19.9001
rfemur -20.1519 0.672459 13.6312
rtibia 12.7077
rfoot -22.3625 -20.161
rtoes 0.521836
lfemur 7.17923 -0.559376 -22.639
ltibia 7.27071
lfoot -7.0766 -13.1959
ltoes 40.1957
597
root 11.7828 18.0389 11.1629 3.33812 5.363 1.86353
lowerback -5.50657 -1.06777 -4.75081
upperback 0.688041 -1.04489 -1.40481
thorax 3.86414 -0.604566 1.11972
lowerneck 2.34808 -0.54572 0.888431
upperneck 13.2423 -1.28066 4.99251
head 3.9441 -0.394701 1.47293
rclavicle 7.45443e-016 2.38542e-015
rhumerus -51.0156 -10.1747 -77.7291
rradius 22.4603
rwrist 9.10164
rhand 4.80044 -48.1043
rfingers 7.12502
rthumb 30.1796 -75.6589
lclavicle 7.45443e-016 2.38542e-015
lhumerus -14.2799 -28.0961 83.0814
lradius 32.1381
lwrist 14.5463
lhand -14.0864 -9.8242
lfingers 7.12502
lthumb 12.0458 19.8091
rfemur -20.0802 1.42708 13.3833
rtibia 10.4503
rfoot -23.1125 -21.1616
rtoes -0.385386
lfemur 7.4625 -0.503987 -22.6942
ltibia 7.51266
lfoot -7.13244 -13.7173
ltoes 40.5031
598
root 11.787 18.0105 11.329 3.48874 5.52121 2.01385
lowerback -5.65322 -1.1305 -4.86027
upperback 0.652924 -1.11419 -1.3679
thorax 3.91736 -0.642111 1.21051
lowerneck 2.38811 -0.563741 0.866681
upperneck 13.359 -1.32891 5.17395
head 3.98294 -0.410651 1.53839
rclavicle 1.99654e-014 1.19271e-014
rhumerus -51.1649 -10.1603 -77.7628
rradius 22.4033
rwrist 9.27576
rhand 5.19948 -48.2566
rfingers 7.12502
rthumb 30.5602 -75.7409
lclavicle 1.99654e-014 1.19271e-014
lhumerus -14.1953 -27.9442 82.9137
lradius 33.1807
lwrist 14.9301
lhand -14.3034 -9.91753
lfingers 7.12502
lthumb 11.8366 19.7279
rfemur -19.9611 2.29782 13.0697
rtibia 8.2467
rfoot -23.8196 -22.0179
rtoes -0.799551
lfemur 7.74468 -0.44649 -22.7736
ltibia 7.78293
lfoot -7.15267 -14.2516
ltoes 40.968
599
root 11.7917 17.9813 11.4964 3.63512 5.66556 2.16201
lowerback -5.78709 -1.19746 -4.95699
upperback 0.619179 -1.19064 -1.32874
thorax 3.96533 -0.68289 1.29583
lowerneck 2.41962 -0.575789 0.840973
upperneck 13.4369 -1.36547 5.3342
head 4.00898 -0.422508 1.59736
rclavicle 3.16813e-015 1.94809e-014
rhumerus -51.2853 -10.1256 -77.7989
rradius 22.3839
rwrist 9.41713
rhand 5.62628 -48.4361
rfingers 7.12502
rthumb 30.9671 -75.8439
lclavicle 3.16813e-015 1.94809e-014
lhumerus -14.1794 -27.7316 82.7729
lradius 34.2399
lwrist 15.2648
lhand -14.5633 -10.0108
lfingers 7.12502
lthumb 11.586 19.6489
rfemur -19.7915 3.4157 12.6857
rtibia 6.10011
rfoot -24.5864 -22.7995
rtoes -0.6666
lfemur 8.02462 -0.405228 -22.8573
ltibia 8.0857
lfoot -7.1399 -14.7892
ltoes 41.6068
600
root 11.7962 17.9513 11.6648 3.77652 5.79217 2.29653
lowerback -5.90421 -1.26149 -5.03279
upperback 0.583968 -1.2658 -1.28543
thorax 4.00214 -0.722405 1.37401
lowerneck 2.4375 -0.590585 0.817091
upperneck 13.4991 -1.40327 5.47321
head 4.03179 -0.435837 1.64872
rclavicle 7.25564e-015 -6.36111e-015
rhumerus -51.3779 -10.0814 -77.8388
rradius 22.3694
rwrist 9.51772
rhand 5.98289 -48.5788
rfingers 7.12502
rthumb 31.307 -75.9214
lclavicle 7.25564e-015 -6.36111e-015
lhumerus -14.2293 -27.4611 82.6577
lradius 35.3186
lwrist 15.5433
lhand -14.8308 -10.0928
lfingers 7.12502
lthumb 11.3279 19.5813
rfemur -19.5928 4.86004 12.2345
rtibia 4.05013
rfoot -25.4872 -23.6195
rtoes -0.174646
lfemur 8.29353 -0.384386 -22.9295
ltibia 8.43661
lfoot -7.1171 -15.3199
ltoes 42.3164
